<?xml version="1.0" encoding="UTF-8" standalone="no"?><!DOCTYPE svg PUBLIC "-//W3C//DTD SVG 1.1//EN" "http://www.w3.org/Graphics/SVG/1.1/DTD/svg11.dtd"><svg width="100%" height="100%" viewBox="0 0 1200 1200" version="1.1" xmlns="http://www.w3.org/2000/svg" xmlns:xlink="http://www.w3.org/1999/xlink" xml:space="preserve" xmlns:serif="http://www.serif.com/" style="fill-rule:evenodd;clip-rule:evenodd;stroke-linecap:round;stroke-linejoin:round;stroke-miterlimit:1.5;"><rect x="0" y="0" width="1200" height="1200" style="stroke:#ebebeb;stroke-width:1px;"/><g><path d="M876.086,856.115l0,-95.987c4.188,2.262 8.823,3.407 13.462,3.407c7.248,0 14.492,-2.756 20.012,-8.276l135.257,-135.257c5.345,-5.344 8.292,-12.451 8.292,-20.012c-0,-7.561 -2.944,-14.668 -8.289,-20.009l-119.704,-119.705l-0.003,-126.298c-0,-32.593 -26.514,-59.107 -59.107,-59.107l-123.021,0c-0.998,0 -1.962,0.145 -2.883,0.393l-120.089,-120.09c-5.345,-5.344 -12.452,-8.291 -20.013,-8.291c-7.561,-0 -14.667,2.944 -20.009,8.288l-119.705,119.705l-126.298,-0c-32.592,-0 -59.106,26.514 -59.106,59.107l-0,126.298l-119.697,119.696c-5.345,5.345 -8.292,12.452 -8.292,20.013c0,7.561 2.944,14.667 8.289,20.009l135.257,135.257c5.345,5.345 12.451,8.292 20.012,8.292c4.78,-0 9.376,-1.185 13.462,-3.401l-0,95.963c-0,11.012 8.957,19.969 19.969,19.969l95.987,-0c-4.525,8.374 -4.525,18.551 -0,26.926l-105.874,-0c-20.405,-0 -37.003,-16.602 -37.003,-37.004l-0,-63.825c-0,-6.103 -4.949,-11.051 -11.051,-11.051c-6.103,-0 -11.051,4.949 -11.051,11.051l-0,63.825c-0,32.593 26.514,59.106 59.106,59.106l126.298,0l119.697,119.697c5.345,5.345 12.452,8.292 20.012,8.292c7.561,0 14.668,-2.944 20.01,-8.289l119.704,-119.704l126.298,-0c32.593,-0 59.107,-26.514 59.107,-59.107l-0,-60.021c-0,-6.103 -4.949,-11.051 -11.051,-11.051c-6.102,-0 -11.051,4.949 -11.051,11.051l-0,60.021c-0,20.405 -16.602,37.004 -37.004,37.004l-105.857,-0c2.216,-4.086 3.401,-8.682 3.401,-13.464c0,-4.78 -1.185,-9.376 -3.401,-13.462l95.963,0c11.012,0 19.969,-8.957 19.969,-19.969l-0.005,0.01Zm-193.372,-59.131c35.432,-14.858 66.068,-38.877 89.165,-70.109c3.629,-4.909 2.591,-11.828 -2.314,-15.457c-4.909,-3.631 -11.829,-2.591 -15.457,2.315c-22.539,30.483 -53.077,53.298 -88.443,66.198l-29.768,-29.769c56.436,-13.44 100.836,-57.839 114.274,-114.274l86.565,86.564l-114.275,114.275l-39.747,-39.743Zm-205.169,39.745l-114.274,-114.274l39.748,-39.749c21.615,51.319 62.956,92.663 114.274,114.275l-39.748,39.748Zm56.783,-56.783c-52.786,-19.285 -94.997,-61.492 -114.275,-114.274l29.787,-29.786c13.442,56.435 57.839,100.835 114.274,114.274l-29.786,29.786Zm-17.019,-376.922c-38.22,16.107 -71.531,43.407 -94.777,78.029c-3.401,5.068 -2.054,11.933 3.015,15.337c1.891,1.271 4.033,1.879 6.149,1.879c3.56,-0 7.051,-1.716 9.185,-4.893c22.551,-33.59 55.656,-59.494 93.464,-73.308l29.762,29.762c-56.435,13.44 -100.836,57.839 -114.274,114.274l-86.565,-86.564l114.275,-114.274l39.763,39.764l0.003,-0.006Zm222.403,-57.016l114.274,0l-0,114.274l-1.624,1.624l-81.558,-81.558c-4.313,-4.316 -11.315,-4.316 -15.629,0c-4.316,4.316 -4.316,11.313 0,15.629l81.558,81.558l-39.745,39.745c-21.584,-51.162 -63.084,-92.702 -114.266,-114.282l56.99,-56.99Zm-74.042,74.041c52.633,19.227 95.052,61.67 114.275,114.275l-29.778,29.777c-13.442,-56.435 -57.839,-100.836 -114.274,-114.274l29.777,-29.778Zm365.338,179.942c0,1.655 -0.644,3.211 -1.814,4.381l-135.257,135.257c-2.339,2.339 -6.422,2.339 -8.764,0l-131.013,-131.013c0.156,-2.855 0.251,-5.729 0.251,-8.627c0,-2.895 -0.095,-5.768 -0.251,-8.626l131.013,-131.014c1.17,-1.169 2.726,-1.814 4.381,-1.814c1.657,-0 3.211,0.645 4.383,1.814l135.257,135.257c1.17,1.17 1.815,2.726 1.815,4.381l-0.001,0.004Zm-127.987,-266.011l-0,105.858c-4.086,-2.217 -8.682,-3.402 -13.465,-3.402c-4.779,0 -9.375,1.185 -13.461,3.402l0,-95.964c0,-11.011 -8.957,-19.969 -19.969,-19.969l-95.987,0c4.525,-8.374 4.525,-18.55 -0,-26.925l105.873,-0c20.405,-0 37.004,16.601 37.004,37.003l0.005,-0.003Zm-307.396,-163.179c2.339,-2.342 6.419,-2.342 8.761,-0l135.257,135.257c1.17,1.17 1.815,2.726 1.815,4.384c-0,1.654 -0.645,3.211 -1.815,4.38l-131.013,131.014c-2.855,-0.157 -5.728,-0.252 -8.627,-0.252c-2.894,0 -5.768,0.095 -8.626,0.252l-131.014,-131.014c-1.169,-1.169 -1.814,-2.726 -1.814,-4.38c0,-1.658 0.645,-3.211 1.814,-4.384l135.262,-135.257Zm-261.626,126.172l105.858,0c-2.217,4.086 -3.402,8.682 -3.402,13.465c0,7.558 2.944,14.664 8.292,20.009l17.179,17.178l-114.275,114.275l-1.624,-1.624l0,-114.275l52.562,0c6.103,0 11.051,-4.948 11.051,-11.051c0,-6.102 -4.948,-11.051 -11.051,-11.051l-54.695,0c-11.012,0 -19.969,8.958 -19.969,19.97l-0,95.986c-8.375,-4.527 -18.554,-4.527 -26.926,0l0,-105.873c0,-20.405 16.602,-37.003 37.004,-37.003l-0.004,-0.006Zm-27.926,442.653l-135.257,-135.257c-1.17,-1.17 -1.814,-2.726 -1.814,-4.381c-0,-1.654 0.644,-3.211 1.814,-4.38l135.257,-135.258c1.17,-1.169 2.726,-1.814 4.384,-1.814c1.654,0 3.211,0.645 4.38,1.814l131.014,131.014c-0.157,2.855 -0.252,5.728 -0.252,8.626c0,2.895 0.095,5.769 0.252,8.627l-131.014,131.013c-2.342,2.34 -6.425,2.336 -8.764,0l0,-0.004Zm39.948,0.071l1.624,-1.624l114.274,114.274l-1.624,1.624l-114.274,-0l-0,-114.274Zm258.364,289.477c-2.339,2.342 -6.419,2.342 -8.761,-0l-135.257,-135.257c-1.169,-1.17 -1.814,-2.726 -1.814,-4.384c0,-1.655 0.645,-3.211 1.814,-4.38l131.014,-131.014c2.855,0.157 5.728,0.252 8.623,0.252c2.895,-0 5.768,-0.095 8.624,-0.252l131.013,131.014c1.17,1.169 1.814,2.726 1.814,4.38c0,1.658 -0.644,3.211 -1.814,4.384l-135.257,135.257l0.001,-0Zm135.328,-175.203l-1.624,-1.624l114.275,-114.274l1.624,1.624l-0,114.274l-114.275,-0Z" style="fill:#9925ff;fill-rule:nonzero;stroke:#9925ff;stroke-width:1px;stroke-linecap:butt;stroke-miterlimit:2;"/><path d="M606.421,786.478c-3.546,-3.545 -9.292,-3.545 -12.835,0l-96.647,96.647c-3.546,3.546 -3.546,9.293 -0,12.838l96.647,96.647c3.546,3.546 9.292,3.546 12.835,0l96.647,-96.647c3.546,-3.545 3.546,-9.292 -0,-12.838l-96.647,-96.647Z" style="fill:#9925ff;fill-rule:nonzero;stroke:#9925ff;stroke-width:1px;stroke-linecap:butt;stroke-miterlimit:2;"/><path d="M316.865,496.93c-3.546,-3.546 -9.292,-3.546 -12.835,0l-96.647,96.647c-3.546,3.546 -3.546,9.292 -0,12.835l96.647,96.647c3.545,3.546 9.292,3.546 12.835,0l96.647,-96.647c3.545,-3.546 3.545,-9.292 -0,-12.835l-96.647,-96.647Z" style="fill:#9925ff;fill-rule:nonzero;stroke:#9925ff;stroke-width:1px;stroke-linecap:butt;stroke-miterlimit:2;"/><path d="M883.136,496.93l-96.647,96.647c-3.546,3.546 -3.546,9.292 -0,12.835l96.647,96.647c3.545,3.546 9.292,3.546 12.835,0l96.647,-96.647c3.545,-3.546 3.545,-9.292 -0,-12.835l-96.647,-96.647c-3.546,-3.546 -9.293,-3.546 -12.835,0Z" style="fill:#9925ff;fill-rule:nonzero;stroke:#9925ff;stroke-width:1px;stroke-linecap:butt;stroke-miterlimit:2;"/><path d="M593.58,413.517c3.545,3.546 9.292,3.546 12.838,0l96.647,-96.647c3.545,-3.546 3.545,-9.292 -0,-12.838l-96.647,-96.647c-3.546,-3.546 -9.293,-3.546 -12.838,0l-96.647,96.647c-3.546,3.546 -3.546,9.292 -0,12.835l96.647,96.65Z" style="fill:#9925ff;fill-rule:nonzero;stroke:#9925ff;stroke-width:1px;stroke-linecap:butt;stroke-miterlimit:2;"/></g></svg>